<svg width="20" height="20" viewBox="0 0 20 20" fill="none" xmlns="http://www.w3.org/2000/svg">
<g clip-path="url(#clip0_5898_168099)">
<path d="M6.27972 4.18614C5.89832 4.18614 5.58203 3.86985 5.58203 3.48845V0.69769C5.58203 0.316286 5.89832 0 6.27972 0C6.66113 0 6.97741 0.316286 6.97741 0.69769V3.48845C6.97741 3.86985 6.66113 4.18614 6.27972 4.18614Z" fill="#2257AA"/>
<path d="M13.7211 4.18614C13.3397 4.18614 13.0234 3.86985 13.0234 3.48845V0.69769C13.0234 0.316286 13.3397 0 13.7211 0C14.1025 0 14.4188 0.316286 14.4188 0.69769V3.48845C14.4188 3.86985 14.1025 4.18614 13.7211 4.18614Z" fill="#2257AA"/>
<path d="M6.74275 12.3241C6.62182 12.3241 6.50089 12.2962 6.38926 12.2497C6.26832 12.2032 6.1753 12.138 6.08227 12.0543C5.91483 11.8776 5.8125 11.645 5.8125 11.3938C5.8125 11.2729 5.84041 11.152 5.88692 11.0403C5.93343 10.9287 5.99855 10.8264 6.08227 10.7334C6.1753 10.6496 6.26832 10.5845 6.38926 10.538C6.72415 10.3985 7.14276 10.4729 7.40323 10.7334C7.57068 10.9101 7.67301 11.152 7.67301 11.3938C7.67301 11.4497 7.6637 11.5148 7.6544 11.5799C7.6451 11.6357 7.62649 11.6915 7.59859 11.7473C7.57998 11.8031 7.55207 11.859 7.51486 11.9148C7.48696 11.9613 7.44044 12.0078 7.40323 12.0543C7.22649 12.2218 6.98462 12.3241 6.74275 12.3241Z" fill="#2257AA"/>
<path d="M10.0006 12.3282C9.87963 12.3282 9.7587 12.3003 9.64707 12.2538C9.52614 12.2073 9.43311 12.1422 9.34009 12.0584C9.17264 11.8817 9.07031 11.6491 9.07031 11.398C9.07031 11.277 9.09822 11.1561 9.14473 11.0445C9.19125 10.9328 9.25636 10.8305 9.34009 10.7375C9.43311 10.6538 9.52614 10.5886 9.64707 10.5421C9.98196 10.3933 10.4006 10.477 10.661 10.7375C10.8285 10.9142 10.9308 11.1561 10.9308 11.398C10.9308 11.4538 10.9215 11.5189 10.9122 11.584C10.9029 11.6398 10.8843 11.6957 10.8564 11.7515C10.8378 11.8073 10.8099 11.8631 10.7727 11.9189C10.7448 11.9654 10.6983 12.0119 10.661 12.0584C10.4843 12.2259 10.2424 12.3282 10.0006 12.3282Z" fill="#2257AA"/>
<path d="M13.2545 12.3282C13.1335 12.3282 13.0126 12.3003 12.901 12.2538C12.78 12.2073 12.687 12.1422 12.594 12.0584C12.5568 12.0119 12.5196 11.9654 12.4824 11.9189C12.4452 11.8631 12.4172 11.8073 12.3986 11.7515C12.3707 11.6957 12.3521 11.6398 12.3428 11.584C12.3335 11.5189 12.3242 11.4538 12.3242 11.398C12.3242 11.1561 12.4265 10.9142 12.594 10.7375C12.687 10.6538 12.78 10.5886 12.901 10.5421C13.2452 10.3933 13.6545 10.477 13.915 10.7375C14.0824 10.9142 14.1847 11.1561 14.1847 11.398C14.1847 11.4538 14.1754 11.5189 14.1661 11.584C14.1568 11.6398 14.1382 11.6957 14.1103 11.7515C14.0917 11.8073 14.0638 11.8631 14.0266 11.9189C13.9987 11.9654 13.9522 12.0119 13.915 12.0584C13.7382 12.2259 13.4963 12.3282 13.2545 12.3282Z" fill="#2257AA"/>
<path d="M6.74275 15.5833C6.62182 15.5833 6.50089 15.5553 6.38926 15.5088C6.27763 15.4623 6.1753 15.3972 6.08227 15.3135C5.91483 15.1367 5.8125 14.8949 5.8125 14.653C5.8125 14.5321 5.84041 14.4111 5.88692 14.2995C5.93343 14.1786 5.99855 14.0762 6.08227 13.9925C6.42647 13.6483 7.05904 13.6483 7.40323 13.9925C7.57068 14.1693 7.67301 14.4111 7.67301 14.653C7.67301 14.8949 7.57068 15.1367 7.40323 15.3135C7.22649 15.4809 6.98462 15.5833 6.74275 15.5833Z" fill="#2257AA"/>
<path d="M10.0006 15.5833C9.7587 15.5833 9.51683 15.4809 9.34009 15.3135C9.17264 15.1367 9.07031 14.8949 9.07031 14.653C9.07031 14.5321 9.09822 14.4111 9.14473 14.2995C9.19125 14.1786 9.25636 14.0762 9.34009 13.9925C9.68428 13.6483 10.3169 13.6483 10.661 13.9925C10.7448 14.0762 10.8099 14.1786 10.8564 14.2995C10.9029 14.4111 10.9308 14.5321 10.9308 14.653C10.9308 14.8949 10.8285 15.1367 10.661 15.3135C10.4843 15.4809 10.2424 15.5833 10.0006 15.5833Z" fill="#2257AA"/>
<path d="M13.2545 15.5801C13.0126 15.5801 12.7707 15.4777 12.594 15.3103C12.5103 15.2266 12.4452 15.1243 12.3986 15.0033C12.3521 14.8917 12.3242 14.7708 12.3242 14.6498C12.3242 14.5289 12.3521 14.408 12.3986 14.2963C12.4452 14.1754 12.5103 14.0731 12.594 13.9893C12.808 13.7754 13.1335 13.6731 13.4312 13.7382C13.4963 13.7475 13.5522 13.7661 13.608 13.794C13.6638 13.8126 13.7196 13.8405 13.7754 13.8777C13.8219 13.9056 13.8684 13.9521 13.915 13.9893C14.0824 14.1661 14.1847 14.408 14.1847 14.6498C14.1847 14.8917 14.0824 15.1336 13.915 15.3103C13.7382 15.4777 13.4963 15.5801 13.2545 15.5801Z" fill="#2257AA"/>
<path d="M17.9065 7.98913H2.09222C1.71082 7.98913 1.39453 7.67284 1.39453 7.29144C1.39453 6.91004 1.71082 6.59375 2.09222 6.59375H17.9065C18.2879 6.59375 18.6042 6.91004 18.6042 7.29144C18.6042 7.67284 18.2879 7.98913 17.9065 7.98913Z" fill="#2257AA"/>
<path d="M13.7207 19.9996H6.27865C2.88322 19.9996 0.929688 18.0461 0.929688 14.6506V6.74349C0.929688 3.34806 2.88322 1.39453 6.27865 1.39453H13.7207C17.1161 1.39453 19.0696 3.34806 19.0696 6.74349V14.6506C19.0696 18.0461 17.1161 19.9996 13.7207 19.9996ZM6.27865 2.78991C3.61812 2.78991 2.32507 4.08296 2.32507 6.74349V14.6506C2.32507 17.3112 3.61812 18.6042 6.27865 18.6042H13.7207C16.3812 18.6042 17.6743 17.3112 17.6743 14.6506V6.74349C17.6743 4.08296 16.3812 2.78991 13.7207 2.78991H6.27865Z" fill="#2257AA"/>
</g>
<defs>
<clipPath id="clip0_5898_168099">
<rect width="20" height="20" fill="white"/>
</clipPath>
</defs>
</svg>
