<svg width="20" height="21" viewBox="0 0 20 21" fill="none" xmlns="http://www.w3.org/2000/svg">
<g clip-path="url(#clip0_5898_168052)">
<path d="M19.5471 7.50203C19.4653 7.25172 19.2881 7.04376 19.0539 6.92329C18.8198 6.80282 18.5476 6.77957 18.2964 6.85857C18.0451 6.93758 17.8352 7.11247 17.7122 7.34528C17.5891 7.57809 17.5629 7.85004 17.6391 8.1021C18.1277 9.65006 18.1336 11.3101 17.6559 12.8615C17.1782 14.4128 16.2396 15.782 14.9649 16.7871C13.6902 17.7921 12.1398 18.3853 10.5198 18.4878C8.89978 18.5903 7.28695 18.1972 5.89574 17.3609L6.14742 17.3724C6.41241 17.3845 6.67136 17.2908 6.86729 17.112C7.06323 16.9332 7.18011 16.6839 7.19222 16.4189C7.20433 16.1539 7.11068 15.8949 6.93186 15.699C6.75305 15.5031 6.50372 15.3862 6.23873 15.3741L3.09286 15.2303C2.943 15.2234 2.79351 15.2503 2.65547 15.309C2.51743 15.3677 2.39437 15.4568 2.2954 15.5695C2.19643 15.6822 2.12409 15.8158 2.08374 15.9603C2.04339 16.1048 2.03605 16.2565 2.06228 16.4042L2.61265 19.5049C2.66139 19.7649 2.81015 19.9953 3.02697 20.1468C3.24379 20.2983 3.51138 20.3587 3.77224 20.315C3.90157 20.2921 4.02513 20.2439 4.13584 20.1732C4.24655 20.1025 4.34225 20.0107 4.41748 19.903C4.49271 19.7953 4.54598 19.6739 4.57427 19.5456C4.60256 19.4173 4.6053 19.2848 4.58233 19.1554L4.53233 18.874C6.2881 19.9974 8.34722 20.5529 10.4298 20.4649C12.5123 20.3769 14.5172 19.6497 16.172 18.3822C17.7689 17.1228 18.9463 15.4087 19.5489 13.4662C20.1515 11.5237 20.1508 9.44414 19.5471 7.50203Z" fill="#2257AA"/>
<path d="M2.3613 12.909C1.8735 11.361 1.86836 9.70128 2.34657 8.15033C2.82478 6.59938 3.7637 5.2307 5.03852 4.22622C6.31333 3.22174 7.86367 2.62903 9.48345 2.52688C11.1032 2.42473 12.7158 2.81798 14.1067 3.65435L13.8541 3.6428C13.5891 3.63069 13.3302 3.72435 13.1343 3.90316C12.9383 4.08197 12.8214 4.3313 12.8093 4.59629C12.7972 4.86128 12.8909 5.12023 13.0697 5.31616C13.2485 5.5121 13.4978 5.62898 13.7628 5.64109L16.9087 5.78466C16.9241 5.78541 16.9392 5.78561 16.9543 5.78561C17.1005 5.78562 17.2449 5.75359 17.3774 5.69178C17.5098 5.62997 17.6271 5.53989 17.721 5.42786C17.8149 5.31583 17.883 5.18458 17.9207 5.04336C17.9584 4.90214 17.9647 4.75437 17.9391 4.61047L17.3887 1.50994C17.3658 1.38063 17.3176 1.2571 17.2469 1.14641C17.1762 1.03572 17.0844 0.940044 16.9767 0.864838C16.869 0.789632 16.7476 0.736371 16.6193 0.708097C16.4911 0.679822 16.3585 0.677087 16.2292 0.700048C16.0998 0.723009 15.9763 0.771217 15.8656 0.841918C15.7549 0.912619 15.6593 1.00443 15.5841 1.11211C15.5088 1.21979 15.4556 1.34122 15.4273 1.46948C15.399 1.59774 15.3963 1.73032 15.4193 1.85964L15.4693 2.14087C13.7438 1.01148 11.7114 0.443132 9.65044 0.513666C7.58945 0.5842 5.60066 1.29017 3.95647 2.53488C2.31228 3.77959 1.0931 5.50216 0.465911 7.46667C-0.161275 9.43118 -0.165793 11.5416 0.452976 13.5087C0.534885 13.7602 0.71205 13.9695 0.946481 14.0918C1.18091 14.2141 1.45394 14.2397 1.70703 14.1631C1.83234 14.1237 1.94867 14.0601 2.04937 13.9757C2.15007 13.8914 2.23317 13.788 2.29393 13.6716C2.35469 13.5551 2.39191 13.4278 2.40347 13.297C2.41503 13.1662 2.4007 13.0343 2.3613 12.909Z" fill="#2257AA"/>
</g>
<defs>
<clipPath id="clip0_5898_168052">
<rect width="20" height="20" fill="white" transform="translate(0 0.5)"/>
</clipPath>
</defs>
</svg>
