<svg width="21" height="22" viewBox="0 0 21 22" fill="none" xmlns="http://www.w3.org/2000/svg">
<g clip-path="url(#clip0_5434_122723)">
<path d="M16.7154 2.42718H15.8583V1.57003C15.8583 1.34271 15.768 1.12469 15.6072 0.963942C15.4465 0.803197 15.2284 0.712891 15.0011 0.712891C14.7738 0.712891 14.5558 0.803197 14.395 0.963942C14.2343 1.12469 14.144 1.34271 14.144 1.57003V2.42718H7.28683V1.57003C7.28683 1.34271 7.19652 1.12469 7.03578 0.963942C6.87503 0.803197 6.65702 0.712891 6.42969 0.712891C6.20236 0.712891 5.98434 0.803197 5.8236 0.963942C5.66285 1.12469 5.57254 1.34271 5.57254 1.57003V2.42718H4.7154C3.57918 2.42854 2.48988 2.8805 1.68645 3.68394C0.883015 4.48737 0.431049 5.57667 0.429688 6.71289L0.429688 16.9986C0.431049 18.1348 0.883015 19.2241 1.68645 20.0276C2.48988 20.831 3.57918 21.283 4.7154 21.2843H16.7154C17.8516 21.283 18.9409 20.831 19.7444 20.0276C20.5478 19.2241 20.9998 18.1348 21.0011 16.9986V6.71289C20.9998 5.57667 20.5478 4.48737 19.7444 3.68394C18.9409 2.8805 17.8516 2.42854 16.7154 2.42718ZM2.14397 6.71289C2.14397 6.03091 2.41489 5.37685 2.89713 4.89462C3.37936 4.41238 4.03342 4.14146 4.7154 4.14146H16.7154C17.3974 4.14146 18.0514 4.41238 18.5337 4.89462C19.0159 5.37685 19.2868 6.03091 19.2868 6.71289V7.57003H2.14397V6.71289ZM16.7154 19.57H4.7154C4.03342 19.57 3.37936 19.2991 2.89713 18.8169C2.41489 18.3346 2.14397 17.6806 2.14397 16.9986V9.28432H19.2868V16.9986C19.2868 17.6806 19.0159 18.3346 18.5337 18.8169C18.0514 19.2991 17.3974 19.57 16.7154 19.57Z" fill="#616471"/>
<path d="M10.7154 14.8566C11.4255 14.8566 12.0011 14.281 12.0011 13.5709C12.0011 12.8608 11.4255 12.2852 10.7154 12.2852C10.0053 12.2852 9.42969 12.8608 9.42969 13.5709C9.42969 14.281 10.0053 14.8566 10.7154 14.8566Z" fill="#616471"/>
<path d="M6.42634 14.8566C7.13642 14.8566 7.71205 14.281 7.71205 13.5709C7.71205 12.8608 7.13642 12.2852 6.42634 12.2852C5.71626 12.2852 5.14062 12.8608 5.14062 13.5709C5.14062 14.281 5.71626 14.8566 6.42634 14.8566Z" fill="#616471"/>
<path d="M15.0045 14.8566C15.7145 14.8566 16.2902 14.281 16.2902 13.5709C16.2902 12.8608 15.7145 12.2852 15.0045 12.2852C14.2944 12.2852 13.7188 12.8608 13.7188 13.5709C13.7188 14.281 14.2944 14.8566 15.0045 14.8566Z" fill="#616471"/>
</g>
<defs>
<clipPath id="clip0_5434_122723">
<rect width="20.5714" height="20.5714" fill="white" transform="translate(0.429688 0.714844)"/>
</clipPath>
</defs>
</svg>
