<svg width="22" height="22" viewBox="0 0 22 22" fill="none" xmlns="http://www.w3.org/2000/svg">
<g clip-path="url(#clip0_5434_122720)">
<path d="M17.0006 0.712891H5.00056C2.63742 0.712891 0.714844 3.01983 0.714844 5.85541V16.1405C0.714844 18.976 2.63742 21.283 5.00056 21.283H17.0006C19.3637 21.283 21.2863 18.976 21.2863 16.1405V5.85541C21.2863 3.01983 19.3637 0.712891 17.0006 0.712891ZM19.572 5.85541V9.96943H6.71484V2.7699H17.0006C18.4183 2.7699 19.572 4.15427 19.572 5.85541ZM2.42913 16.1405V5.85541C2.42913 4.15427 3.58284 2.7699 5.00056 2.7699V19.226C3.58284 19.226 2.42913 17.8416 2.42913 16.1405ZM17.0006 19.226H6.71484V12.0264H19.572V16.1405C19.572 17.8416 18.4183 19.226 17.0006 19.226Z" fill="#FFFFFF"/>
</g>
<defs>
<clipPath id="clip0_5434_122720">
<rect width="20.5714" height="20.5714" fill="white" transform="translate(0.714844 0.714844)"/>
</clipPath>
</defs>
</svg>
