<svg width="30" height="30" viewBox="0 0 30 30" fill="none" xmlns="http://www.w3.org/2000/svg">
<path d="M6.45714 6.08705C6.45714 5.79153 6.57454 5.5081 6.78351 5.29913C6.99248 5.09017 7.2759 4.97277 7.57143 4.97277H19.4571C19.7527 4.97277 20.0361 5.09017 20.2451 5.29913C20.454 5.5081 20.5714 5.79153 20.5714 6.08705C20.5714 6.38258 20.454 6.666 20.2451 6.87497C20.0361 7.08394 19.7527 7.20134 19.4571 7.20134H7.57143C7.2759 7.20134 6.99248 7.08394 6.78351 6.87497C6.57454 6.666 6.45714 6.38258 6.45714 6.08705ZM9.05714 13.8871H7.57143C7.2759 13.8871 6.99248 14.0045 6.78351 14.2134C6.57454 14.4224 6.45714 14.7058 6.45714 15.0013C6.45714 15.2969 6.57454 15.5803 6.78351 15.7893C6.99248 15.9982 7.2759 16.1156 7.57143 16.1156H9.05714C9.35267 16.1156 9.63609 15.9982 9.84506 15.7893C10.054 15.5803 10.1714 15.2969 10.1714 15.0013C10.1714 14.7058 10.054 14.4224 9.84506 14.2134C9.63609 14.0045 9.35267 13.8871 9.05714 13.8871ZM7.57143 11.6585H13.5143C13.8098 11.6585 14.0932 11.5411 14.3022 11.3321C14.5112 11.1231 14.6286 10.8397 14.6286 10.5442C14.6286 10.2487 14.5112 9.96525 14.3022 9.75628C14.0932 9.54731 13.8098 9.42991 13.5143 9.42991H7.57143C7.2759 9.42991 6.99248 9.54731 6.78351 9.75628C6.57454 9.96525 6.45714 10.2487 6.45714 10.5442C6.45714 10.8397 6.57454 11.1231 6.78351 11.3321C6.99248 11.5411 7.2759 11.6585 7.57143 11.6585ZM22.3617 19.8299H20.5714V17.9208C20.5714 17.6252 20.454 17.3418 20.2451 17.1329C20.0361 16.9239 19.7527 16.8065 19.4571 16.8065C19.1616 16.8065 18.8782 16.9239 18.6692 17.1329C18.4603 17.3418 18.3429 17.6252 18.3429 17.9208V20.9442C18.3429 21.5593 18.8421 22.0585 19.4571 22.0585H22.3617C22.6572 22.0585 22.9407 21.9411 23.1496 21.7321C23.3586 21.5231 23.476 21.2397 23.476 20.9442C23.476 20.6487 23.3586 20.3652 23.1496 20.1563C22.9407 19.9473 22.6572 19.8299 22.3617 19.8299ZM28 20.9442C28 25.6539 24.1683 29.4871 19.4571 29.4871C17.7418 29.4886 16.0661 28.9706 14.6509 28.0013H6.08571C5.00236 28.0006 3.9636 27.5698 3.19755 26.8038C2.4315 26.0377 2.00079 24.999 2 23.9156V4.60134C2.00079 3.51798 2.4315 2.47922 3.19755 1.71317C3.9636 0.947123 5.00236 0.516412 6.08571 0.515625H20.9429C22.0262 0.516412 23.065 0.947123 23.831 1.71317C24.5971 2.47922 25.0278 3.51798 25.0286 4.60134V14.4828C25.96 15.2822 26.7078 16.2735 27.2207 17.3887C27.7335 18.5039 27.9994 19.7167 28 20.9442ZM6.08571 25.7728H12.4163C11.4364 24.3534 10.9125 22.669 10.9143 20.9442C10.9143 16.2345 14.7459 12.4013 19.4571 12.4013C20.6061 12.4003 21.7433 12.6323 22.8 13.0833V4.60134C22.8 3.57768 21.9665 2.7442 20.9429 2.7442H6.08571C5.06206 2.7442 4.22857 3.57768 4.22857 4.60134V23.9156C4.22857 24.9393 5.06206 25.7728 6.08571 25.7728ZM25.7714 20.9442C25.7714 17.4632 22.9397 14.6299 19.4571 14.6299C15.9746 14.6299 13.1429 17.4632 13.1429 20.9442C13.1429 24.4252 15.9746 27.2585 19.4571 27.2585C22.9397 27.2585 25.7714 24.4252 25.7714 20.9442Z" fill="#2257AA"/>
</svg>
