<svg width="30" height="30" viewBox="0 0 30 30" fill="none" xmlns="http://www.w3.org/2000/svg">
<path d="M9.9763 14.35C9.3349 13.5547 8.59089 12.8106 8.07777 11.9383C6.4358 9.01359 6.51277 6.08884 8.46261 3.36933C10.4381 0.598505 13.2346 -0.504693 16.5698 0.213668C19.9051 0.932029 22.0088 3.08711 22.7272 6.44802C23.7534 11.3226 19.982 15.8637 14.9535 15.9406C10.746 16.0176 7.35941 17.7109 4.74252 20.9948C3.61367 22.4059 2.86965 23.9966 2.43351 25.7411C2.09998 27.0239 2.58744 27.6397 3.89589 27.6397C6.79499 27.6397 9.69408 27.6397 12.6188 27.6397C12.8241 27.6397 13.0037 27.6397 13.2089 27.6653C13.7733 27.7679 14.1838 28.2298 14.1838 28.8198C14.1838 29.3843 13.799 29.8717 13.2089 29.9743C13.0293 30 12.8497 30 12.6958 30C9.71974 30 6.76933 30 3.79326 30C1.09941 30 -0.516904 27.9219 0.150145 25.305C1.53556 19.8916 4.89646 16.2998 9.9763 14.35ZM20.5465 7.93605C20.5465 4.85736 18.0065 2.31744 14.9279 2.3431C11.8492 2.3431 9.3349 4.88302 9.3349 7.96171C9.3349 11.0404 11.8748 13.5547 14.9535 13.5547C18.0322 13.5547 20.5465 11.0404 20.5465 7.93605Z" fill="#2257AA"/>
<path d="M18.6472 18.4549C18.7498 17.0438 19.0577 16.582 19.853 16.582C20.6483 16.582 20.9562 17.0438 21.0588 18.4549C22.4186 18.4549 23.804 18.4549 25.0355 18.4549C25.2664 17.8648 25.446 17.3004 25.7282 16.8129C25.8308 16.6333 26.2156 16.582 26.4722 16.582C27.2419 16.582 27.4984 17.0695 27.601 18.4549C28.7042 18.6088 29.5252 19.1219 29.8074 20.2765C29.8844 20.533 29.8844 20.8152 29.8844 21.0974C29.8844 23.0216 29.8844 24.9458 29.8844 26.8956C29.8844 28.7429 28.6273 29.9743 26.8057 30C24.3428 30 21.8541 30 19.3912 30C17.5696 30 16.3382 28.7429 16.3125 26.8956C16.3125 25.0228 16.3125 23.1499 16.3125 21.277C16.3382 19.5581 16.9795 18.7628 18.6472 18.4549ZM18.6728 22.3033C18.6728 23.8426 18.6728 25.305 18.6728 26.793C18.6728 27.4344 18.8781 27.614 19.5195 27.614C21.9055 27.614 24.3171 27.614 26.7031 27.614C27.3701 27.614 27.5497 27.4344 27.5497 26.7417C27.5497 25.4076 27.5497 24.0992 27.5497 22.7651C27.5497 22.6111 27.5241 22.4829 27.4984 22.3033C24.5737 22.3033 21.6746 22.3033 18.6728 22.3033Z" fill="#2257AA"/>
</svg>
