<svg width="16" height="17" viewBox="0 0 16 17" fill="none" xmlns="http://www.w3.org/2000/svg">
<g clip-path="url(#clip0_5821_162267)">
<path d="M0.83002 16.4935C0.619398 16.4935 0.408777 16.4134 0.248752 16.2521C-0.0725008 15.9309 -0.0725008 15.4101 0.248752 15.0888L14.5927 0.744846C14.914 0.423593 15.4348 0.423593 15.756 0.744846C16.0773 1.0661 16.0773 1.58693 15.756 1.90839L1.41229 16.2521C1.25106 16.4124 1.04044 16.4935 0.83002 16.4935Z" fill="white"/>
<path d="M15.175 16.4935C14.9644 16.4935 14.7539 16.4134 14.5937 16.2521L0.248752 1.90839C-0.0725008 1.58693 -0.0725008 1.0661 0.248752 0.744846C0.570006 0.423593 1.09084 0.423593 1.41229 0.744846L15.756 15.0888C16.0773 15.4101 16.0773 15.9309 15.756 16.2521C15.5948 16.4124 15.3844 16.4935 15.175 16.4935Z" fill="white"/>
</g>
<defs>
<clipPath id="clip0_5821_162267">
<rect width="15.996" height="16" fill="white" transform="translate(0 0.5)"/>
</clipPath>
</defs>
</svg>
